# Created by Kenney (www.kenney.nl)

mtllib Stage-2-Sunflower.mtl

v 4 4 -1.75
v 4 -1 -1.75
v 4 4 1.75
v 4 -1 1.75
v 0 4 -1.75
v 0 4 1.75
v 0 -1 1.75
v 0 -1 -1.75
v 4 3 -1.75
v 4 3 1.75
v 3 4 -1.75
v 3 4 1.75
v 3 3 1.75
v 3 3 -1.75
v 3 -1 -1.5
v 3 -2 -1.5
v 3 -1 1.5
v 3 -2 1.5
v 0 -1 -1.5
v 0 -1 1.5
v 0 -2 1.5
v 0 -2 -1.5
v 3 -5 -1.5
v 3 -5 1.5
v 0 -5 1.5
v 0 -5 -1.5
v 5 -3 -1.75
v 5 -4 -1.75
v 5 -3 1.75
v 5 -4 1.75
v 4 -3 -1.75
v 4 -3 1.75
v 4 -4 1.75
v 4 -4 -1.75
v -2 -3 -1.75
v -2 -8 -1.75
v -2 -3 1.75
v -2 -8 1.75
v -3 -3 -1.75
v -3 -3 1.75
v -3 -8 1.75
v -3 -8 -1.75
v 5 -4 -1.5
v 5 -5 -1.5
v 5 -4 1.5
v 5 -5 1.5
v 4 -4 -1.5
v 4 -4 1.5
v 4 -5 1.5
v 4 -5 -1.5
v 4 -6 -1.75
v 4 -6 1.75
v 3 -4 -1.75
v 3 -4 1.75
v 3 -6 1.75
v 3 -6 -1.75
v -1 -4 -1.5
v -1 -5 -1.5
v -1 -4 1.5
v -1 -5 1.5
v -2 -4 -1.5
v -2 -4 1.5
v -2 -5 1.5
v -2 -5 -1.5
v 5 -5 -1.75
v 5 -9 -1.75
v 5 -5 1.75
v 5 -9 1.75
v 4 -5 -1.75
v 4 -5 1.75
v 4 -9 1.75
v 4 -9 -1.75
v 3 -5 -1.75
v 3 -8 -1.75
v 3 -5 1.75
v 3 -8 1.75
v 2 -5 -1.75
v 2 -5 1.75
v 2 -8 1.75
v 2 -8 -1.75
v 2 -5 -1.5
v 2 -7 -1.5
v 2 -5 1.5
v 2 -7 1.5
v 0 -7 1.5
v 0 -7 -1.5
v -1 -5 -1.75
v -1 -7 -1.75
v -1 -5 1.75
v -1 -7 1.75
v -2 -5 -1.75
v -2 -5 1.75
v -2 -7 1.75
v -2 -7 -1.75
v 4 -6 -1.5
v 4 -9 -1.5
v 4 -6 1.5
v 4 -9 1.5
v 3 -6 -1.5
v 3 -6 1.5
v 3 -9 1.5
v 3 -9 -1.5
v 2 -7 -1.75
v 2 -14 -1.75
v 2 -7 1.75
v 2 -14 1.75
v 1 -7 -1.75
v 1 -7 1.75
v 1 -14 1.75
v 1 -14 -1.75
v 1 -7 -1.5
v 1 -9 -1.5
v 1 -7 1.5
v 1 -9 1.5
v 0 -9 1.5
v 0 -9 -1.5
v 0 -7 -1.75
v 0 -9 -1.75
v 0 -7 1.75
v 0 -9 1.75
v -1 -9 1.75
v -1 -9 -1.75
v -1 -7 -1.5
v -1 -9 -1.5
v -1 -7 1.5
v -1 -9 1.5
v -2 -7 -1.5
v -2 -7 1.5
v -2 -9 1.5
v -2 -9 -1.5
v 3 -8 -1.5
v 3 -11 -1.5
v 3 -8 1.5
v 3 -11 1.5
v 2 -8 -1.5
v 2 -8 1.5
v 2 -11 1.5
v 2 -11 -1.5
v 4 -12 -1.75
v 4 -12 1.75
v 3 -9 -1.75
v 3 -9 1.75
v 3 -12 1.75
v 3 -12 -1.75
v 1 -9 -1.75
v 1 -9 1.75
v 0 -14 1.75
v 0 -14 -1.75
v 0 -11 -1.5
v 0 -11 1.5
v -1 -11 1.5
v -1 -11 -1.5
v -1 -12 -1.75
v -1 -12 1.75
v -2 -9 -1.75
v -2 -9 1.75
v -2 -12 1.75
v -2 -12 -1.75
v 3 -11 -1.75
v 3 -16 -1.75
v 3 -11 1.75
v 3 -16 1.75
v 2 -11 -1.75
v 2 -11 1.75
v 2 -16 1.75
v 2 -16 -1.75
v 0 -11 -1.75
v 0 -16 -1.75
v 0 -11 1.75
v 0 -16 1.75
v -1 -11 -1.75
v -1 -11 1.75
v -1 -16 1.75
v -1 -16 -1.75
v 2 -14 -2
v 2 -16 -2
v 2 -14 2
v 2 -16 2
v 0 -14 -2
v 0 -14 2
v 0 -16 2
v 0 -16 -2

vn 1 0 0
vn 0 1 0
vn 0 -1 0
vn -1 0 0
vn 0 0 -1
vn 0 0 1

vt 0.8515625 0.65625
vt 0.8515625 0.6171875
vt 0.90625 0.65625
vt 0.90625 0.6171875
vt 0.34375 0.8515625
vt 0.34375 0.90625
vt 0.375 0.8515625
vt 0.375 0.90625
vt 0.34375 0.40625
vt 0.34375 0.3515625
vt 0.375 0.40625
vt 0.375 0.3515625
vt 0.3515625 0.6171875
vt 0.3515625 0.65625
vt 0.40625 0.6171875
vt 0.40625 0.65625
vt 0.125 0.6171875
vt 0.09375 0.6171875
vt 0.125 0.65625
vt 0.09375 0.65625
vt 0.65625 0.6171875
vt 0.625 0.6171875
vt 0.65625 0.65625
vt 0.625 0.65625
vt 0.8515625 0.6484375
vt 0.90625 0.6484375
vt 0.3515625 0.8515625
vt 0.3515625 0.90625
vt 0.3515625 0.40625
vt 0.3515625 0.3515625
vt 0.3515625 0.6484375
vt 0.40625 0.6484375
vt 0.1015625 0.6484375
vt 0.09375 0.6484375
vt 0.1015625 0.65625
vt 0.65625 0.6484375
vt 0.6484375 0.6484375
vt 0.6484375 0.65625
vt 0.8554688 0.6171875
vt 0.8554688 0.609375
vt 0.9023438 0.6171875
vt 0.9023438 0.609375
vt 0.3515625 0.8554688
vt 0.3515625 0.9023438
vt 0.375 0.8554688
vt 0.375 0.9023438
vt 0.3515625 0.4023438
vt 0.3515625 0.3554688
vt 0.375 0.4023438
vt 0.375 0.3554688
vt 0.3554688 0.609375
vt 0.3554688 0.6171875
vt 0.4023438 0.609375
vt 0.4023438 0.6171875
vt 0.125 0.609375
vt 0.1015625 0.609375
vt 0.1015625 0.6171875
vt 0.6484375 0.609375
vt 0.625 0.609375
vt 0.6484375 0.6171875
vt 0.8554688 0.5859375
vt 0.9023438 0.5859375
vt 0.3554688 0.5859375
vt 0.4023438 0.5859375
vt 0.125 0.5859375
vt 0.1015625 0.5859375
vt 0.6484375 0.5859375
vt 0.625 0.5859375
vt 0.8515625 0.6015625
vt 0.8515625 0.59375
vt 0.90625 0.6015625
vt 0.90625 0.59375
vt 0.3359375 0.8515625
vt 0.3359375 0.90625
vt 0.3359375 0.40625
vt 0.3359375 0.3515625
vt 0.3515625 0.59375
vt 0.3515625 0.6015625
vt 0.40625 0.59375
vt 0.40625 0.6015625
vt 0.09375 0.59375
vt 0.0859375 0.59375
vt 0.09375 0.6015625
vt 0.0859375 0.6015625
vt 0.6640625 0.59375
vt 0.65625 0.59375
vt 0.6640625 0.6015625
vt 0.65625 0.6015625
vt 0.8515625 0.5625
vt 0.90625 0.5625
vt 0.390625 0.8515625
vt 0.390625 0.90625
vt 0.3984375 0.8515625
vt 0.3984375 0.90625
vt 0.390625 0.40625
vt 0.390625 0.3515625
vt 0.3984375 0.40625
vt 0.3984375 0.3515625
vt 0.3515625 0.5625
vt 0.40625 0.5625
vt 0.1484375 0.5625
vt 0.140625 0.5625
vt 0.1484375 0.6015625
vt 0.140625 0.6015625
vt 0.609375 0.5625
vt 0.6015625 0.5625
vt 0.609375 0.6015625
vt 0.6015625 0.6015625
vt 0.8554688 0.59375
vt 0.9023438 0.59375
vt 0.3359375 0.8554688
vt 0.3359375 0.9023438
vt 0.34375 0.8554688
vt 0.34375 0.9023438
vt 0.3359375 0.4023438
vt 0.3359375 0.3554688
vt 0.34375 0.4023438
vt 0.34375 0.3554688
vt 0.3554688 0.59375
vt 0.4023438 0.59375
vt 0.09375 0.5859375
vt 0.0859375 0.5859375
vt 0.6640625 0.5859375
vt 0.65625 0.5859375
vt 0.8515625 0.578125
vt 0.90625 0.578125
vt 0.3515625 0.578125
vt 0.40625 0.578125
vt 0.1015625 0.578125
vt 0.09375 0.578125
vt 0.1015625 0.59375
vt 0.65625 0.578125
vt 0.6484375 0.578125
vt 0.6484375 0.59375
vt 0.3828125 0.8554688
vt 0.3828125 0.9023438
vt 0.390625 0.8554688
vt 0.390625 0.9023438
vt 0.3828125 0.4023438
vt 0.3828125 0.3554688
vt 0.390625 0.4023438
vt 0.390625 0.3554688
vt 0.140625 0.5859375
vt 0.1328125 0.5859375
vt 0.140625 0.59375
vt 0.1328125 0.59375
vt 0.6171875 0.5859375
vt 0.609375 0.5859375
vt 0.6171875 0.59375
vt 0.609375 0.59375
vt 0.8515625 0.5859375
vt 0.8515625 0.5546875
vt 0.90625 0.5859375
vt 0.90625 0.5546875
vt 0.3515625 0.5546875
vt 0.3515625 0.5859375
vt 0.40625 0.5546875
vt 0.40625 0.5859375
vt 0.09375 0.5546875
vt 0.0859375 0.5546875
vt 0.6640625 0.5546875
vt 0.65625 0.5546875
vt 0.359375 0.8515625
vt 0.359375 0.90625
vt 0.359375 0.40625
vt 0.359375 0.3515625
vt 0.109375 0.5625
vt 0.1015625 0.5625
vt 0.109375 0.5859375
vt 0.6484375 0.5625
vt 0.640625 0.5625
vt 0.640625 0.5859375
vt 0.8554688 0.5703125
vt 0.9023438 0.5703125
vt 0.359375 0.8554688
vt 0.359375 0.9023438
vt 0.359375 0.4023438
vt 0.359375 0.3554688
vt 0.3554688 0.5703125
vt 0.4023438 0.5703125
vt 0.125 0.5703125
vt 0.109375 0.5703125
vt 0.640625 0.5703125
vt 0.625 0.5703125
vt 0.8515625 0.5703125
vt 0.90625 0.5703125
vt 0.3828125 0.8515625
vt 0.3828125 0.90625
vt 0.3828125 0.40625
vt 0.3828125 0.3515625
vt 0.3515625 0.5703125
vt 0.40625 0.5703125
vt 0.140625 0.5703125
vt 0.1328125 0.5703125
vt 0.6171875 0.5703125
vt 0.609375 0.5703125
vt 0.8554688 0.578125
vt 0.8554688 0.5546875
vt 0.9023438 0.578125
vt 0.9023438 0.5546875
vt 0.3554688 0.5546875
vt 0.3554688 0.578125
vt 0.4023438 0.5546875
vt 0.4023438 0.578125
vt 0.1015625 0.5546875
vt 0.6484375 0.5546875
vt 0.8515625 0.515625
vt 0.90625 0.515625
vt 0.3671875 0.8515625
vt 0.3671875 0.90625
vt 0.3671875 0.40625
vt 0.3671875 0.3515625
vt 0.3515625 0.515625
vt 0.40625 0.515625
vt 0.1171875 0.515625
vt 0.109375 0.515625
vt 0.1171875 0.5703125
vt 0.640625 0.515625
vt 0.6328125 0.515625
vt 0.6328125 0.5703125
vt 0.3671875 0.8554688
vt 0.3671875 0.9023438
vt 0.3671875 0.4023438
vt 0.3671875 0.3554688
vt 0.125 0.5546875
vt 0.1171875 0.5546875
vt 0.6328125 0.5546875
vt 0.625 0.5546875
vt 0.1328125 0.5546875
vt 0.6171875 0.5546875
vt 0.140625 0.5546875
vt 0.609375 0.5546875
vt 0.8554688 0.5625
vt 0.8554688 0.5390625
vt 0.9023438 0.5625
vt 0.9023438 0.5390625
vt 0.3554688 0.5390625
vt 0.3554688 0.5625
vt 0.4023438 0.5390625
vt 0.4023438 0.5625
vt 0.109375 0.5390625
vt 0.1015625 0.5390625
vt 0.6484375 0.5390625
vt 0.640625 0.5390625
vt 0.8515625 0.53125
vt 0.90625 0.53125
vt 0.3515625 0.53125
vt 0.40625 0.53125
vt 0.1015625 0.53125
vt 0.09375 0.53125
vt 0.65625 0.53125
vt 0.6484375 0.53125
vt 0.125 0.515625
vt 0.625 0.515625
vt 0.1328125 0.5390625
vt 0.125 0.5390625
vt 0.625 0.5390625
vt 0.6171875 0.5390625
vt 0.140625 0.53125
vt 0.1328125 0.53125
vt 0.6171875 0.53125
vt 0.609375 0.53125
vt 0.8515625 0.5390625
vt 0.8515625 0.5
vt 0.90625 0.5390625
vt 0.90625 0.5
vt 0.3515625 0.5
vt 0.3515625 0.5390625
vt 0.40625 0.5
vt 0.40625 0.5390625
vt 0.109375 0.5
vt 0.1015625 0.5
vt 0.6484375 0.5
vt 0.640625 0.5
vt 0.1328125 0.5
vt 0.125 0.5
vt 0.625 0.5
vt 0.6171875 0.5
vt 0.8476563 0.515625
vt 0.8476563 0.5
vt 0.9101563 0.515625
vt 0.9101563 0.5
vt 0.359375 0.8476563
vt 0.359375 0.9101563
vt 0.375 0.8476563
vt 0.375 0.9101563
vt 0.359375 0.4101563
vt 0.359375 0.3476563
vt 0.375 0.4101563
vt 0.375 0.3476563
vt 0.3476563 0.5
vt 0.3476563 0.515625
vt 0.4101563 0.5
vt 0.4101563 0.515625

usemtl Stage-2-Sunflower

f 3/3/1 2/2/1 1/1/1
f 2/2/1 3/3/1 4/4/1
f 5/7/2 3/6/2 1/5/2
f 3/6/2 5/7/2 6/8/2
f 7/11/3 2/10/3 4/9/3
f 2/10/3 7/11/3 8/12/3
f 7/15/4 5/14/4 8/13/4
f 5/14/4 7/15/4 6/16/4
f 5/19/5 2/18/5 8/17/5
f 2/18/5 5/19/5 1/20/5
f 3/23/6 7/22/6 4/21/6
f 7/22/6 3/23/6 6/24/6
f 3/3/1 9/25/1 1/1/1
f 9/25/1 3/3/1 10/26/1
f 11/27/2 3/6/2 1/5/2
f 3/6/2 11/27/2 12/28/2
f 13/29/3 9/10/3 10/9/3
f 9/10/3 13/29/3 14/30/3
f 13/32/4 11/14/4 14/31/4
f 11/14/4 13/32/4 12/16/4
f 11/35/5 9/34/5 14/33/5
f 9/34/5 11/35/5 1/20/5
f 3/23/6 13/37/6 10/36/6
f 13/37/6 3/23/6 12/38/6
f 17/41/1 16/40/1 15/39/1
f 16/40/1 17/41/1 18/42/1
f 19/45/2 17/44/2 15/43/2
f 17/44/2 19/45/2 20/46/2
f 21/49/3 16/48/3 18/47/3
f 16/48/3 21/49/3 22/50/3
f 21/53/4 19/52/4 22/51/4
f 19/52/4 21/53/4 20/54/4
f 19/17/5 16/56/5 22/55/5
f 16/56/5 19/17/5 15/57/5
f 17/60/6 21/59/6 18/58/6
f 21/59/6 17/60/6 20/22/6
f 18/42/1 23/61/1 16/40/1
f 23/61/1 18/42/1 24/62/1
f 22/45/2 18/44/2 16/43/2
f 18/44/2 22/45/2 21/46/2
f 25/49/3 23/48/3 24/47/3
f 23/48/3 25/49/3 26/50/3
f 25/64/4 22/51/4 26/63/4
f 22/51/4 25/64/4 21/53/4
f 22/55/5 23/66/5 26/65/5
f 23/66/5 22/55/5 16/56/5
f 18/58/6 25/68/6 24/67/6
f 25/68/6 18/58/6 21/59/6
f 29/71/1 28/70/1 27/69/1
f 28/70/1 29/71/1 30/72/1
f 31/5/2 29/74/2 27/73/2
f 29/74/2 31/5/2 32/6/2
f 33/9/3 28/76/3 30/75/3
f 28/76/3 33/9/3 34/10/3
f 33/79/4 31/78/4 34/77/4
f 31/78/4 33/79/4 32/80/4
f 31/83/5 28/82/5 34/81/5
f 28/82/5 31/83/5 27/84/5
f 29/87/6 33/86/6 30/85/6
f 33/86/6 29/87/6 32/88/6
f 37/71/1 36/89/1 35/69/1
f 36/89/1 37/71/1 38/90/1
f 39/93/2 37/92/2 35/91/2
f 37/92/2 39/93/2 40/94/2
f 41/97/3 36/96/3 38/95/3
f 36/96/3 41/97/3 42/98/3
f 41/100/4 39/78/4 42/99/4
f 39/78/4 41/100/4 40/80/4
f 39/103/5 36/102/5 42/101/5
f 36/102/5 39/103/5 35/104/5
f 37/107/6 41/106/6 38/105/6
f 41/106/6 37/107/6 40/108/6
f 45/110/1 44/61/1 43/109/1
f 44/61/1 45/110/1 46/62/1
f 47/113/2 45/112/2 43/111/2
f 45/112/2 47/113/2 48/114/2
f 49/117/3 44/116/3 46/115/3
f 44/116/3 49/117/3 50/118/3
f 49/64/4 47/119/4 50/63/4
f 47/119/4 49/64/4 48/120/4
f 47/81/5 44/122/5 50/121/5
f 44/122/5 47/81/5 43/82/5
f 45/85/6 49/124/6 46/123/6
f 49/124/6 45/85/6 48/86/6
f 33/72/1 51/125/1 34/70/1
f 51/125/1 33/72/1 52/126/1
f 53/27/2 33/6/2 34/5/2
f 33/6/2 53/27/2 54/28/2
f 55/29/3 51/10/3 52/9/3
f 51/10/3 55/29/3 56/30/3
f 55/128/4 53/77/4 56/127/4
f 53/77/4 55/128/4 54/79/4
f 53/131/5 51/130/5 56/129/5
f 51/130/5 53/131/5 34/81/5
f 33/86/6 55/133/6 52/132/6
f 55/133/6 33/86/6 54/134/6
f 59/110/1 58/61/1 57/109/1
f 58/61/1 59/110/1 60/62/1
f 61/137/2 59/136/2 57/135/2
f 59/136/2 61/137/2 62/138/2
f 63/141/3 58/140/3 60/139/3
f 58/140/3 63/141/3 64/142/3
f 63/64/4 61/119/4 64/63/4
f 61/119/4 63/64/4 62/120/4
f 61/145/5 58/144/5 64/143/5
f 58/144/5 61/145/5 57/146/5
f 59/149/6 63/148/6 60/147/6
f 63/148/6 59/149/6 62/150/6
f 67/153/1 66/152/1 65/151/1
f 66/152/1 67/153/1 68/154/1
f 69/5/2 67/74/2 65/73/2
f 67/74/2 69/5/2 70/6/2
f 71/9/3 66/76/3 68/75/3
f 66/76/3 71/9/3 72/10/3
f 71/157/4 69/156/4 72/155/4
f 69/156/4 71/157/4 70/158/4
f 69/121/5 66/160/5 72/159/5
f 66/160/5 69/121/5 65/122/5
f 67/123/6 71/162/6 68/161/6
f 71/162/6 67/123/6 70/124/6
f 75/153/1 74/89/1 73/151/1
f 74/89/1 75/153/1 76/90/1
f 77/163/2 75/28/2 73/27/2
f 75/28/2 77/163/2 78/164/2
f 79/165/3 74/30/3 76/29/3
f 74/30/3 79/165/3 80/166/3
f 79/100/4 77/156/4 80/99/4
f 77/156/4 79/100/4 78/158/4
f 77/169/5 74/168/5 80/167/5
f 74/168/5 77/169/5 73/66/5
f 75/67/6 79/171/6 76/170/6
f 79/171/6 75/67/6 78/172/6
f 83/62/1 82/173/1 81/61/1
f 82/173/1 83/62/1 84/174/1
f 26/45/2 83/176/2 81/175/2
f 83/176/2 26/45/2 25/46/2
f 85/49/3 82/178/3 84/177/3
f 82/178/3 85/49/3 86/50/3
f 85/180/4 26/63/4 86/179/4
f 26/63/4 85/180/4 25/64/4
f 26/65/5 82/182/5 86/181/5
f 82/182/5 26/65/5 81/169/5
f 83/172/6 85/184/6 84/183/6
f 85/184/6 83/172/6 25/68/6
f 89/153/1 88/185/1 87/151/1
f 88/185/1 89/153/1 90/186/1
f 91/91/2 89/188/2 87/187/2
f 89/188/2 91/91/2 92/92/2
f 93/95/3 88/190/3 90/189/3
f 88/190/3 93/95/3 94/96/3
f 93/192/4 91/156/4 94/191/4
f 91/156/4 93/192/4 92/158/4
f 91/143/5 88/194/5 94/193/5
f 88/194/5 91/143/5 87/144/5
f 89/147/6 93/196/6 90/195/6
f 93/196/6 89/147/6 92/148/6
f 97/199/1 96/198/1 95/197/1
f 96/198/1 97/199/1 98/200/1
f 99/43/2 97/114/2 95/113/2
f 97/114/2 99/43/2 100/44/2
f 101/47/3 96/118/3 98/117/3
f 96/118/3 101/47/3 102/48/3
f 101/203/4 99/202/4 102/201/4
f 99/202/4 101/203/4 100/204/4
f 99/129/5 96/159/5 102/205/5
f 96/159/5 99/129/5 95/130/5
f 97/132/6 101/206/6 98/162/6
f 101/206/6 97/132/6 100/133/6
f 105/186/1 104/207/1 103/185/1
f 104/207/1 105/186/1 106/208/1
f 107/209/2 105/164/2 103/163/2
f 105/164/2 107/209/2 108/210/2
f 109/211/3 104/166/3 106/165/3
f 104/166/3 109/211/3 110/212/3
f 109/214/4 107/191/4 110/213/4
f 107/191/4 109/214/4 108/192/4
f 107/217/5 104/216/5 110/215/5
f 104/216/5 107/217/5 103/182/5
f 105/183/6 109/219/6 106/218/6
f 109/219/6 105/183/6 108/220/6
f 113/174/1 112/198/1 111/173/1
f 112/198/1 113/174/1 114/200/1
f 86/45/2 113/222/2 111/221/2
f 113/222/2 86/45/2 85/46/2
f 115/49/3 112/224/3 114/223/3
f 112/224/3 115/49/3 116/50/3
f 115/203/4 86/179/4 116/201/4
f 86/179/4 115/203/4 85/180/4
f 86/181/5 112/226/5 116/225/5
f 112/226/5 86/181/5 111/217/5
f 113/220/6 115/228/6 114/227/6
f 115/228/6 113/220/6 85/184/6
f 119/186/1 118/152/1 117/185/1
f 118/152/1 119/186/1 120/154/1
f 88/187/2 119/8/2 117/7/2
f 119/8/2 88/187/2 90/188/2
f 121/189/3 118/12/3 120/11/3
f 118/12/3 121/189/3 122/190/3
f 121/157/4 88/191/4 122/155/4
f 88/191/4 121/157/4 90/192/4
f 88/194/5 118/225/5 122/229/5
f 118/225/5 88/194/5 117/181/5
f 119/184/6 121/230/6 120/228/6
f 121/230/6 119/184/6 90/195/6
f 125/174/1 124/198/1 123/173/1
f 124/198/1 125/174/1 126/200/1
f 127/137/2 125/136/2 123/135/2
f 125/136/2 127/137/2 128/138/2
f 129/141/3 124/140/3 126/139/3
f 124/140/3 129/141/3 130/142/3
f 129/203/4 127/179/4 130/201/4
f 127/179/4 129/203/4 128/180/4
f 127/193/5 124/229/5 130/231/5
f 124/229/5 127/193/5 123/194/5
f 125/195/6 129/232/6 126/230/6
f 129/232/6 125/195/6 128/196/6
f 133/235/1 132/234/1 131/233/1
f 132/234/1 133/235/1 134/236/1
f 135/175/2 133/44/2 131/43/2
f 133/44/2 135/175/2 136/176/2
f 137/177/3 132/48/3 134/47/3
f 132/48/3 137/177/3 138/178/3
f 137/239/4 135/238/4 138/237/4
f 135/238/4 137/239/4 136/240/4
f 135/167/5 132/242/5 138/241/5
f 132/242/5 135/167/5 131/168/5
f 133/170/6 137/244/6 134/243/6
f 137/244/6 133/170/6 136/171/6
f 71/154/1 139/245/1 72/152/1
f 139/245/1 71/154/1 140/246/1
f 141/27/2 71/6/2 72/5/2
f 71/6/2 141/27/2 142/28/2
f 143/29/3 139/10/3 140/9/3
f 139/10/3 143/29/3 144/30/3
f 143/248/4 141/155/4 144/247/4
f 141/155/4 143/248/4 142/157/4
f 141/205/5 139/250/5 144/249/5
f 139/250/5 141/205/5 72/159/5
f 71/162/6 143/252/6 140/251/6
f 143/252/6 71/162/6 142/206/6
f 146/154/1 110/207/1 145/152/1
f 110/207/1 146/154/1 109/208/1
f 118/7/2 146/210/2 145/209/2
f 146/210/2 118/7/2 120/8/2
f 147/11/3 110/212/3 109/211/3
f 110/212/3 147/11/3 148/12/3
f 147/214/4 118/155/4 148/213/4
f 118/155/4 147/214/4 120/157/4
f 118/225/5 110/215/5 148/253/5
f 110/215/5 118/225/5 145/226/5
f 146/227/6 147/254/6 109/219/6
f 147/254/6 146/227/6 120/228/6
f 115/200/1 149/234/1 116/198/1
f 149/234/1 115/200/1 150/236/1
f 124/135/2 115/46/2 116/45/2
f 115/46/2 124/135/2 126/136/2
f 151/139/3 149/50/3 150/49/3
f 149/50/3 151/139/3 152/140/3
f 151/239/4 124/201/4 152/237/4
f 124/201/4 151/239/4 126/203/4
f 124/229/5 149/256/5 152/255/5
f 149/256/5 124/229/5 116/225/5
f 115/228/6 151/258/6 150/257/6
f 151/258/6 115/228/6 126/230/6
f 121/154/1 153/245/1 122/152/1
f 153/245/1 121/154/1 154/246/1
f 155/91/2 121/188/2 122/187/2
f 121/188/2 155/91/2 156/92/2
f 157/95/3 153/190/3 154/189/3
f 153/190/3 157/95/3 158/96/3
f 157/248/4 155/155/4 158/247/4
f 155/155/4 157/248/4 156/157/4
f 155/231/5 153/260/5 158/259/5
f 153/260/5 155/231/5 122/229/5
f 121/230/6 157/262/6 154/261/6
f 157/262/6 121/230/6 156/232/6
f 161/265/1 160/264/1 159/263/1
f 160/264/1 161/265/1 162/266/1
f 163/163/2 161/28/2 159/27/2
f 161/28/2 163/163/2 164/164/2
f 165/165/3 160/30/3 162/29/3
f 160/30/3 165/165/3 166/166/3
f 165/269/4 163/268/4 166/267/4
f 163/268/4 165/269/4 164/270/4
f 163/241/5 160/272/5 166/271/5
f 160/272/5 163/241/5 159/242/5
f 161/243/6 165/274/6 162/273/6
f 165/274/6 161/243/6 164/244/6
f 169/265/1 168/264/1 167/263/1
f 168/264/1 169/265/1 170/266/1
f 171/187/2 169/8/2 167/7/2
f 169/8/2 171/187/2 172/188/2
f 173/189/3 168/12/3 170/11/3
f 168/12/3 173/189/3 174/190/3
f 173/269/4 171/268/4 174/267/4
f 171/268/4 173/269/4 172/270/4
f 171/255/5 168/276/5 174/275/5
f 168/276/5 171/255/5 167/256/5
f 169/257/6 173/278/6 170/277/6
f 173/278/6 169/257/6 172/258/6
f 177/281/1 176/280/1 175/279/1
f 176/280/1 177/281/1 178/282/1
f 179/285/2 177/284/2 175/283/2
f 177/284/2 179/285/2 180/286/2
f 181/289/3 176/288/3 178/287/3
f 176/288/3 181/289/3 182/290/3
f 181/293/4 179/292/4 182/291/4
f 179/292/4 181/293/4 180/294/4
f 179/253/5 176/271/5 182/276/5
f 176/271/5 179/253/5 175/216/5
f 177/218/6 181/277/6 178/274/6
f 181/277/6 177/218/6 180/254/6

